<svg id="visual" viewBox="0 0 960 540" width="960" height="540" xmlns="http://www.w3.org/2000/svg" xmlns:xlink="http://www.w3.org/1999/xlink" version="1.1"><rect x="0" y="0" width="960" height="540" fill="#f5f5f5"></rect><path d="M529 540L488 540L488 463L569 463L569 386L494 386L494 309L411 309L411 231L540 231L540 154L518 154L518 77L496 77L496 0L960 0L960 77L960 77L960 154L960 154L960 231L960 231L960 309L960 309L960 386L960 386L960 463L960 463L960 540L960 540Z" fill="#416fdf"></path><path d="M631 540L684 540L684 463L592 463L592 386L637 386L637 309L697 309L697 231L650 231L650 154L627 154L627 77L562 77L562 0L960 0L960 77L960 77L960 154L960 154L960 231L960 231L960 309L960 309L960 386L960 386L960 463L960 463L960 540L960 540Z" fill="#2d48a1"></path><path d="M847 540L795 540L795 463L835 463L835 386L802 386L802 309L870 309L870 231L730 231L730 154L813 154L813 77L796 77L796 0L960 0L960 77L960 77L960 154L960 154L960 231L960 231L960 309L960 309L960 386L960 386L960 463L960 463L960 540L960 540Z" fill="#152567"></path></svg>