<svg id="visual" viewBox="0 0 960 540" width="960" height="540" xmlns="http://www.w3.org/2000/svg" xmlns:xlink="http://www.w3.org/1999/xlink" version="1.1"><rect x="0" y="0" width="960" height="540" fill="#f5f5f5"></rect><path d="M871 540L863.5 527.2C856 514.3 841 488.7 836.7 463C832.3 437.3 838.7 411.7 831.8 386C825 360.3 805 334.7 807 308.8C809 283 833 257 847 231.2C861 205.3 865 179.7 858.8 154C852.7 128.3 836.3 102.7 824.3 77C812.3 51.3 804.7 25.7 800.8 12.8L797 0L960 0L960 12.8C960 25.7 960 51.3 960 77C960 102.7 960 128.3 960 154C960 179.7 960 205.3 960 231.2C960 257 960 283 960 308.8C960 334.7 960 360.3 960 386C960 411.7 960 437.3 960 463C960 488.7 960 514.3 960 527.2L960 540Z" fill="#202C54" stroke-linecap="round" stroke-linejoin="miter"></path></svg>