<svg width="105" height="87" viewBox="0 0 105 87" fill="none" xmlns="http://www.w3.org/2000/svg">
<path d="M5.72857 64.6166C3.44075 63.5298 3.44602 60.2721 5.73734 59.1928L51.563 37.6063C52.3775 37.2226 53.3213 37.225 54.1339 37.6129L99.3525 59.1994C101.625 60.2843 101.63 63.5175 99.3613 64.6098L54.1426 86.3777C53.3252 86.7712 52.3736 86.7737 51.5542 86.3845L5.72857 64.6166Z" fill="#0A4780"/>
<path d="M5.72857 46.6166C3.44075 45.5298 3.44602 42.2721 5.73734 41.1928L51.563 19.6063C52.3775 19.2226 53.3213 19.225 54.1339 19.6129L99.3525 41.1994C101.625 42.2843 101.63 45.5175 99.3613 46.6098L54.1426 68.3777C53.3252 68.7712 52.3736 68.7737 51.5542 68.3845L5.72857 46.6166Z" fill="#0063C1"/>
<path d="M101 62C101 61.3333 100.6 59.8 99 59C97.4 58.2 89.6667 54.6667 86 53C89.8333 51.1667 98 47.2 100 46C100.333 45.8333 101 45.2 101 44V62Z" fill="#1E5FDD"/>
<path d="M5.72857 27.6166C3.44075 26.5298 3.44602 23.2721 5.73734 22.1928L51.563 0.606253C52.3775 0.222563 53.3213 0.224998 54.1339 0.612888L99.3525 22.1994C101.625 23.2843 101.63 26.5175 99.3613 27.6098L54.1426 49.3777C53.3252 49.7712 52.3736 49.7737 51.5542 49.3845L5.72857 27.6166Z" fill="#0195FF"/>
<path d="M5.72857 27.6166C3.44075 26.5298 3.44602 23.2721 5.73734 22.1928L51.563 0.606253C52.3775 0.222563 53.3213 0.224998 54.1339 0.612888L99.3525 22.1994C101.625 23.2843 101.63 26.5175 99.3613 27.6098L54.1426 49.3777C53.3252 49.7712 52.3736 49.7737 51.5542 49.3845L5.72857 27.6166Z" fill="black" fill-opacity="0.2"/>
<path d="M5.72857 64.6166C3.44075 63.5298 3.44602 60.2721 5.73734 59.1928L51.563 37.6063C52.3775 37.2226 53.3213 37.225 54.1339 37.6129L99.3525 59.1994C101.625 60.2843 101.63 63.5175 99.3613 64.6098L54.1426 86.3777C53.3252 86.7712 52.3736 86.7737 51.5542 86.3845L5.72857 64.6166Z" fill="#0E00B5" fill-opacity="0.75"/>
<path d="M5.72857 46.6166C3.44075 45.5298 3.44602 42.2721 5.73734 41.1928L51.563 19.6063C52.3775 19.2226 53.3213 19.225 54.1339 19.6129L99.3525 41.1994C101.625 42.2843 101.63 45.5175 99.3613 46.6098L54.1426 68.3777C53.3252 68.7712 52.3736 68.7737 51.5542 68.3845L5.72857 46.6166Z" fill="#3591F8" fill-opacity="0.75"/>
<path d="M5.72857 27.6166C3.44075 26.5298 3.44602 23.2721 5.73734 22.1928L51.563 0.606253C52.3775 0.222563 53.3213 0.224998 54.1339 0.612888L99.3525 22.1994C101.625 23.2843 101.63 26.5175 99.3613 27.6098L54.1426 49.3777C53.3252 49.7712 52.3736 49.7737 51.5542 49.3845L5.72857 27.6166Z" fill="#B2D3FF" fill-opacity="0.75"/>
<path d="M4 44C4 43.3333 4.4 42.3 6 41.5L20.5 34.5L5 27C4.83333 27 4.4 26.6 4 25V44Z" fill="#7CB0FF"/>
<path d="M5.72857 64.6166C3.44075 63.5298 3.44602 60.2721 5.73734 59.1928L51.563 37.6063C52.3775 37.2226 53.3213 37.225 54.1339 37.6129L99.3525 59.1994C101.625 60.2843 101.63 63.5175 99.3613 64.6098L54.1426 86.3777C53.3252 86.7712 52.3736 86.7737 51.5542 86.3845L5.72857 64.6166Z" fill="#0A4780"/>
<path d="M5.72857 46.6166C3.44075 45.5298 3.44602 42.2721 5.73734 41.1928L51.563 19.6063C52.3775 19.2226 53.3213 19.225 54.1339 19.6129L99.3525 41.1994C101.625 42.2843 101.63 45.5175 99.3613 46.6098L54.1426 68.3777C53.3252 68.7712 52.3736 68.7737 51.5542 68.3845L5.72857 46.6166Z" fill="#0063C1"/>
<path d="M101 62C101 61.3333 100.6 59.8 99 59C97.4 58.2 89.6667 54.6667 86 53C89.8333 51.1667 98 47.2 100 46C100.333 45.8333 101 45.2 101 44V62Z" fill="#1E5FDD"/>
<path d="M5.72857 27.6166C3.44075 26.5298 3.44602 23.2721 5.73734 22.1928L51.563 0.606253C52.3775 0.222563 53.3213 0.224998 54.1339 0.612888L99.3525 22.1994C101.625 23.2843 101.63 26.5175 99.3613 27.6098L54.1426 49.3777C53.3252 49.7712 52.3736 49.7737 51.5542 49.3845L5.72857 27.6166Z" fill="#0195FF"/>
<path d="M5.72857 27.6166C3.44075 26.5298 3.44602 23.2721 5.73734 22.1928L51.563 0.606253C52.3775 0.222563 53.3213 0.224998 54.1339 0.612888L99.3525 22.1994C101.625 23.2843 101.63 26.5175 99.3613 27.6098L54.1426 49.3777C53.3252 49.7712 52.3736 49.7737 51.5542 49.3845L5.72857 27.6166Z" fill="black" fill-opacity="0.2"/>
<path d="M5.72857 64.6166C3.44075 63.5298 3.44602 60.2721 5.73734 59.1928L51.563 37.6063C52.3775 37.2226 53.3213 37.225 54.1339 37.6129L99.3525 59.1994C101.625 60.2843 101.63 63.5175 99.3613 64.6098L54.1426 86.3777C53.3252 86.7712 52.3736 86.7737 51.5542 86.3845L5.72857 64.6166Z" fill="#0E00B5" fill-opacity="0.75"/>
<path d="M5.72857 46.6166C3.44075 45.5298 3.44602 42.2721 5.73734 41.1928L51.563 19.6063C52.3775 19.2226 53.3213 19.225 54.1339 19.6129L99.3525 41.1994C101.625 42.2843 101.63 45.5175 99.3613 46.6098L54.1426 68.3777C53.3252 68.7712 52.3736 68.7737 51.5542 68.3845L5.72857 46.6166Z" fill="#3591F8" fill-opacity="0.75"/>
<path d="M5.72857 27.6166C3.44075 26.5298 3.44602 23.2721 5.73734 22.1928L51.563 0.606253C52.3775 0.222563 53.3213 0.224998 54.1339 0.612888L99.3525 22.1994C101.625 23.2843 101.63 26.5175 99.3613 27.6098L54.1426 49.3777C53.3252 49.7712 52.3736 49.7737 51.5542 49.3845L5.72857 27.6166Z" fill="#B2D3FF" fill-opacity="0.75"/>
<path d="M4 44C4 43.3333 4.4 42.3 6 41.5L20.5 34.5L5 27C4.83333 27 4.4 26.6 4 25V44Z" fill="#7CB0FF"/>
<path d="M5.72857 64.6166C3.44075 63.5298 3.44602 60.2721 5.73734 59.1928L51.563 37.6063C52.3775 37.2226 53.3213 37.225 54.1339 37.6129L99.3525 59.1994C101.625 60.2843 101.63 63.5175 99.3613 64.6098L54.1426 86.3777C53.3252 86.7712 52.3736 86.7737 51.5542 86.3845L5.72857 64.6166Z" fill="#0A4780"/>
<path d="M5.72857 46.6166C3.44075 45.5298 3.44602 42.2721 5.73734 41.1928L51.563 19.6063C52.3775 19.2226 53.3213 19.225 54.1339 19.6129L99.3525 41.1994C101.625 42.2843 101.63 45.5175 99.3613 46.6098L54.1426 68.3777C53.3252 68.7712 52.3736 68.7737 51.5542 68.3845L5.72857 46.6166Z" fill="#0063C1"/>
<path d="M101 62C101 61.3333 100.6 59.8 99 59C97.4 58.2 89.6667 54.6667 86 53C89.8333 51.1667 98 47.2 100 46C100.333 45.8333 101 45.2 101 44V62Z" fill="#1E5FDD"/>
<path d="M5.72857 27.6166C3.44075 26.5298 3.44602 23.2721 5.73734 22.1928L51.563 0.606253C52.3775 0.222563 53.3213 0.224998 54.1339 0.612888L99.3525 22.1994C101.625 23.2843 101.63 26.5175 99.3613 27.6098L54.1426 49.3777C53.3252 49.7712 52.3736 49.7737 51.5542 49.3845L5.72857 27.6166Z" fill="#0195FF"/>
<path d="M5.72857 27.6166C3.44075 26.5298 3.44602 23.2721 5.73734 22.1928L51.563 0.606253C52.3775 0.222563 53.3213 0.224998 54.1339 0.612888L99.3525 22.1994C101.625 23.2843 101.63 26.5175 99.3613 27.6098L54.1426 49.3777C53.3252 49.7712 52.3736 49.7737 51.5542 49.3845L5.72857 27.6166Z" fill="black" fill-opacity="0.2"/>
<path d="M5.72857 64.6166C3.44075 63.5298 3.44602 60.2721 5.73734 59.1928L51.563 37.6063C52.3775 37.2226 53.3213 37.225 54.1339 37.6129L99.3525 59.1994C101.625 60.2843 101.63 63.5175 99.3613 64.6098L54.1426 86.3777C53.3252 86.7712 52.3736 86.7737 51.5542 86.3845L5.72857 64.6166Z" fill="#0E00B5" fill-opacity="0.75"/>
<path d="M5.72857 46.6166C3.44075 45.5298 3.44602 42.2721 5.73734 41.1928L51.563 19.6063C52.3775 19.2226 53.3213 19.225 54.1339 19.6129L99.3525 41.1994C101.625 42.2843 101.63 45.5175 99.3613 46.6098L54.1426 68.3777C53.3252 68.7712 52.3736 68.7737 51.5542 68.3845L5.72857 46.6166Z" fill="#3591F8" fill-opacity="0.75"/>
<path d="M5.72857 27.6166C3.44075 26.5298 3.44602 23.2721 5.73734 22.1928L51.563 0.606253C52.3775 0.222563 53.3213 0.224998 54.1339 0.612888L99.3525 22.1994C101.625 23.2843 101.63 26.5175 99.3613 27.6098L54.1426 49.3777C53.3252 49.7712 52.3736 49.7737 51.5542 49.3845L5.72857 27.6166Z" fill="#B2D3FF" fill-opacity="0.75"/>
<path d="M5.72857 64.6166C3.44075 63.5298 3.44602 60.2721 5.73734 59.1928L51.563 37.6063C52.3775 37.2226 53.3213 37.225 54.1339 37.6129L99.3525 59.1994C101.625 60.2843 101.63 63.5175 99.3613 64.6098L54.1426 86.3777C53.3252 86.7712 52.3736 86.7737 51.5542 86.3845L5.72857 64.6166Z" fill="#0A4780"/>
<path d="M5.72857 46.6166C3.44075 45.5298 3.44602 42.2721 5.73734 41.1928L51.563 19.6063C52.3775 19.2226 53.3213 19.225 54.1339 19.6129L99.3525 41.1994C101.625 42.2843 101.63 45.5175 99.3613 46.6098L54.1426 68.3777C53.3252 68.7712 52.3736 68.7737 51.5542 68.3845L5.72857 46.6166Z" fill="#0063C1"/>
<path d="M101 62C101 61.3333 100.6 59.8 99 59C97.4 58.2 89.6667 54.6667 86 53C89.8333 51.1667 98 47.2 100 46C100.333 45.8333 101 45.2 101 44V62Z" fill="#1E5FDD"/>
<path d="M5.72857 27.6166C3.44075 26.5298 3.44602 23.2721 5.73734 22.1928L51.563 0.606253C52.3775 0.222563 53.3213 0.224998 54.1339 0.612888L99.3525 22.1994C101.625 23.2843 101.63 26.5175 99.3613 27.6098L54.1426 49.3777C53.3252 49.7712 52.3736 49.7737 51.5542 49.3845L5.72857 27.6166Z" fill="#0195FF"/>
<path d="M5.72857 27.6166C3.44075 26.5298 3.44602 23.2721 5.73734 22.1928L51.563 0.606253C52.3775 0.222563 53.3213 0.224998 54.1339 0.612888L99.3525 22.1994C101.625 23.2843 101.63 26.5175 99.3613 27.6098L54.1426 49.3777C53.3252 49.7712 52.3736 49.7737 51.5542 49.3845L5.72857 27.6166Z" fill="black" fill-opacity="0.2"/>
<path d="M5.72857 64.6166C3.44075 63.5298 3.44602 60.2721 5.73734 59.1928L51.563 37.6063C52.3775 37.2226 53.3213 37.225 54.1339 37.6129L99.3525 59.1994C101.625 60.2843 101.63 63.5175 99.3613 64.6098L54.1426 86.3777C53.3252 86.7712 52.3736 86.7737 51.5542 86.3845L5.72857 64.6166Z" fill="#0E00B5" fill-opacity="0.75"/>
<path d="M5.72857 46.6166C3.44075 45.5298 3.44602 42.2721 5.73734 41.1928L51.563 19.6063C52.3775 19.2226 53.3213 19.225 54.1339 19.6129L99.3525 41.1994C101.625 42.2843 101.63 45.5175 99.3613 46.6098L54.1426 68.3777C53.3252 68.7712 52.3736 68.7737 51.5542 68.3845L5.72857 46.6166Z" fill="#3591F8" fill-opacity="0.75"/>
<path d="M5.72857 27.6166C3.44075 26.5298 3.44602 23.2721 5.73734 22.1928L51.563 0.606253C52.3775 0.222563 53.3213 0.224998 54.1339 0.612888L99.3525 22.1994C101.625 23.2843 101.63 26.5175 99.3613 27.6098L54.1426 49.3777C53.3252 49.7712 52.3736 49.7737 51.5542 49.3845L5.72857 27.6166Z" fill="#B2D3FF" fill-opacity="0.75"/>
<path d="M5.72857 64.6166C3.44075 63.5298 3.44602 60.2721 5.73734 59.1928L51.563 37.6063C52.3775 37.2226 53.3213 37.225 54.1339 37.6129L99.3525 59.1994C101.625 60.2843 101.63 63.5175 99.3613 64.6098L54.1426 86.3777C53.3252 86.7712 52.3736 86.7737 51.5542 86.3845L5.72857 64.6166Z" fill="#0A4780"/>
<path d="M5.72857 46.6166C3.44075 45.5298 3.44602 42.2721 5.73734 41.1928L51.563 19.6063C52.3775 19.2226 53.3213 19.225 54.1339 19.6129L99.3525 41.1994C101.625 42.2843 101.63 45.5175 99.3613 46.6098L54.1426 68.3777C53.3252 68.7712 52.3736 68.7737 51.5542 68.3845L5.72857 46.6166Z" fill="#0063C1"/>
<path d="M101 62C101 61.3333 100.6 59.8 99 59C97.4 58.2 89.6667 54.6667 86 53C89.8333 51.1667 98 47.2 100 46C100.333 45.8333 101 45.2 101 44V62Z" fill="#1E5FDD"/>
<path d="M5.72857 27.6166C3.44075 26.5298 3.44602 23.2721 5.73734 22.1928L51.563 0.606253C52.3775 0.222563 53.3213 0.224998 54.1339 0.612888L99.3525 22.1994C101.625 23.2843 101.63 26.5175 99.3613 27.6098L54.1426 49.3777C53.3252 49.7712 52.3736 49.7737 51.5542 49.3845L5.72857 27.6166Z" fill="#0195FF"/>
<path d="M5.72857 27.6166C3.44075 26.5298 3.44602 23.2721 5.73734 22.1928L51.563 0.606253C52.3775 0.222563 53.3213 0.224998 54.1339 0.612888L99.3525 22.1994C101.625 23.2843 101.63 26.5175 99.3613 27.6098L54.1426 49.3777C53.3252 49.7712 52.3736 49.7737 51.5542 49.3845L5.72857 27.6166Z" fill="black" fill-opacity="0.2"/>
<path d="M5.72857 64.6166C3.44075 63.5298 3.44602 60.2721 5.73734 59.1928L51.563 37.6063C52.3775 37.2226 53.3213 37.225 54.1339 37.6129L99.3525 59.1994C101.625 60.2843 101.63 63.5175 99.3613 64.6098L54.1426 86.3777C53.3252 86.7712 52.3736 86.7737 51.5542 86.3845L5.72857 64.6166Z" fill="#0E00B5" fill-opacity="0.75"/>
<path d="M5.72857 46.6166C3.44075 45.5298 3.44602 42.2721 5.73734 41.1928L51.563 19.6063C52.3775 19.2226 53.3213 19.225 54.1339 19.6129L99.3525 41.1994C101.625 42.2843 101.63 45.5175 99.3613 46.6098L54.1426 68.3777C53.3252 68.7712 52.3736 68.7737 51.5542 68.3845L5.72857 46.6166Z" fill="#3591F8" fill-opacity="0.75"/>
<path d="M5.72857 27.6166C3.44075 26.5298 3.44602 23.2721 5.73734 22.1928L51.563 0.606253C52.3775 0.222563 53.3213 0.224998 54.1339 0.612888L99.3525 22.1994C101.625 23.2843 101.63 26.5175 99.3613 27.6098L54.1426 49.3777C53.3252 49.7712 52.3736 49.7737 51.5542 49.3845L5.72857 27.6166Z" fill="#B2D3FF" fill-opacity="0.75"/>
<path d="M5.72857 64.6166C3.44075 63.5298 3.44602 60.2721 5.73734 59.1928L51.563 37.6063C52.3775 37.2226 53.3213 37.225 54.1339 37.6129L99.3525 59.1994C101.625 60.2843 101.63 63.5175 99.3613 64.6098L54.1426 86.3777C53.3252 86.7712 52.3736 86.7737 51.5542 86.3845L5.72857 64.6166Z" fill="#0A4780"/>
<path d="M5.72857 46.6166C3.44075 45.5298 3.44602 42.2721 5.73734 41.1928L51.563 19.6063C52.3775 19.2226 53.3213 19.225 54.1339 19.6129L99.3525 41.1994C101.625 42.2843 101.63 45.5175 99.3613 46.6098L54.1426 68.3777C53.3252 68.7712 52.3736 68.7737 51.5542 68.3845L5.72857 46.6166Z" fill="#0063C1"/>
<path d="M101 62C101 61.3333 100.6 59.8 99 59C97.4 58.2 89.6667 54.6667 86 53C89.8333 51.1667 98 47.2 100 46C100.333 45.8333 101 45.2 101 44V62Z" fill="#1E5FDD"/>
<path d="M5.72857 27.6166C3.44075 26.5298 3.44602 23.2721 5.73734 22.1928L51.563 0.606253C52.3775 0.222563 53.3213 0.224998 54.1339 0.612888L99.3525 22.1994C101.625 23.2843 101.63 26.5175 99.3613 27.6098L54.1426 49.3777C53.3252 49.7712 52.3736 49.7737 51.5542 49.3845L5.72857 27.6166Z" fill="#0195FF"/>
<path d="M5.72857 27.6166C3.44075 26.5298 3.44602 23.2721 5.73734 22.1928L51.563 0.606253C52.3775 0.222563 53.3213 0.224998 54.1339 0.612888L99.3525 22.1994C101.625 23.2843 101.63 26.5175 99.3613 27.6098L54.1426 49.3777C53.3252 49.7712 52.3736 49.7737 51.5542 49.3845L5.72857 27.6166Z" fill="black" fill-opacity="0.2"/>
<path d="M5.72857 64.6166C3.44075 63.5298 3.44602 60.2721 5.73734 59.1928L51.563 37.6063C52.3775 37.2226 53.3213 37.225 54.1339 37.6129L99.3525 59.1994C101.625 60.2843 101.63 63.5175 99.3613 64.6098L54.1426 86.3777C53.3252 86.7712 52.3736 86.7737 51.5542 86.3845L5.72857 64.6166Z" fill="#0E00B5" fill-opacity="0.75"/>
<path d="M5.72857 46.6166C3.44075 45.5298 3.44602 42.2721 5.73734 41.1928L51.563 19.6063C52.3775 19.2226 53.3213 19.225 54.1339 19.6129L99.3525 41.1994C101.625 42.2843 101.63 45.5175 99.3613 46.6098L54.1426 68.3777C53.3252 68.7712 52.3736 68.7737 51.5542 68.3845L5.72857 46.6166Z" fill="#3591F8" fill-opacity="0.75"/>
<path d="M5.72857 27.6166C3.44075 26.5298 3.44602 23.2721 5.73734 22.1928L51.563 0.606253C52.3775 0.222563 53.3213 0.224998 54.1339 0.612888L99.3525 22.1994C101.625 23.2843 101.63 26.5175 99.3613 27.6098L54.1426 49.3777C53.3252 49.7712 52.3736 49.7737 51.5542 49.3845L5.72857 27.6166Z" fill="#B2D3FF" fill-opacity="0.75"/>
<path d="M4 44C4 43.3333 4.4 42.3 6 41.5L20.5 34.5L5 27C4.83333 27 4.4 26.6 4 25V44Z" fill="#7CB0FF"/>
</svg>
